<?xml version="1.0" encoding="UTF-8" standalone="no"?>
<svg
   xmlns:dc="http://purl.org/dc/elements/1.1/"
   xmlns:cc="http://creativecommons.org/ns#"
   xmlns:rdf="http://www.w3.org/1999/02/22-rdf-syntax-ns#"
   xmlns:svg="http://www.w3.org/2000/svg"
   xmlns="http://www.w3.org/2000/svg"
   xmlns:sodipodi="http://sodipodi.sourceforge.net/DTD/sodipodi-0.dtd"
   xmlns:inkscape="http://www.inkscape.org/namespaces/inkscape"
   viewBox="0 0 42.666668 42.666668"
   height="42.666668"
   width="42.666668"
   xml:space="preserve"
   id="svg2"
   version="1.1"
   sodipodi:docname="02d.svg"
   inkscape:version="0.92.3 (2405546, 2018-03-11)"><sodipodi:namedview
     pagecolor="#ffffff"
     bordercolor="#666666"
     borderopacity="1"
     objecttolerance="10"
     gridtolerance="10"
     guidetolerance="10"
     inkscape:pageopacity="0"
     inkscape:pageshadow="2"
     inkscape:window-width="1351"
     inkscape:window-height="819"
     id="namedview28"
     showgrid="false"
     inkscape:zoom="143.75056"
     inkscape:cx="22.930565"
     inkscape:cy="17.58386"
     inkscape:window-x="0"
     inkscape:window-y="0"
     inkscape:window-maximized="0"
     inkscape:current-layer="svg2" /><metadata
     id="metadata8"><rdf:RDF><cc:Work
         rdf:about=""><dc:format>image/svg+xml</dc:format><dc:type
           rdf:resource="http://purl.org/dc/dcmitype/StillImage" /><dc:title></dc:title></cc:Work></rdf:RDF></metadata><defs
     id="defs6"><clipPath
       id="clipPath18"
       clipPathUnits="userSpaceOnUse"><path
         id="path16"
         d="M 0,32 H 32 V 0 H 0 Z" /></clipPath></defs><path
     inkscape:connector-curvature="0"
     d="m 23.600824,24.008087 c 0,-1.848414 0.904631,-3.887176 2.420094,-4.960828 0.141329,-0.100267 0.292206,-0.196714 0.448177,-0.286796 0.8693,-0.501653 1.855416,-0.766484 2.851402,-0.766484 2.966947,0 5.471073,2.315052 5.700573,5.270222 l 0.03628,0.281066 0.280112,-0.0099 c 3.099681,0.0012 5.717126,2.720258 5.717126,5.938669 0,3.219047 -2.619355,5.938987 -5.719674,5.938987 -1.301561,0 -2.425824,-0.366054 -3.341912,-1.180922 l -0.08372,-0.02737 h -0.298568 l -0.110771,0.03852 c -0.565951,0.439264 -1.744327,1.329571 -3.615339,1.329571 -1.373818,0 -2.320465,-0.446904 -3.490883,-1.61764 l -0.203398,-0.209129 -0.208174,0.195442 c -1.012219,0.966063 -2.327149,1.475038 -3.801868,1.475038 -3.154113,0 -5.719992,-2.551874 -5.719992,-5.687843 0,-0.878211 0.200216,-1.728729 0.594599,-2.527046 0.07035,-0.142283 0.147695,-0.284248 0.230773,-0.421757 1.047869,-1.735415 2.856812,-2.771824 4.873611,-2.771824 0.490831,0 1.104846,0.06589 1.423155,0.188119 v -0.608923 c -0.318309,-0.110452 -0.933916,-0.167748 -1.423155,-0.167748 -2.224653,0 -4.232539,1.142726 -5.387996,3.056074 -0.09167,0.151514 -0.171886,0.308122 -0.249554,0.465047 -0.434808,0.88044 -0.652849,1.818174 -0.652849,2.78774 0,3.460325 2.831348,6.276075 6.309816,6.276075 1.529788,0 2.906468,-0.499743 3.999537,-1.447981 1.195247,1.134448 2.255212,1.581671 3.706378,1.581671 1.952499,0 3.206631,-0.884896 3.862028,-1.388141 0.989619,0.819961 2.225925,1.251905 3.587964,1.251905 3.41958,0 6.308224,-2.989229 6.308224,-6.527539 0,-3.453003 -2.751134,-6.383027 -6.061854,-6.522444 -0.378468,-3.131195 -3.078353,-5.546515 -6.261113,-5.546515 -1.099435,0 -2.187093,0.292207 -3.145518,0.845425 -0.172204,0.099 -0.338361,0.205309 -0.49465,0.316399 -1.670798,1.183787 -2.668374,3.402392 -2.668374,5.441154 0,0.0089 9.31e-4,0 9.31e-4,0.0089"
     id="path22"
     style="stroke-width:0.31830785" /><path
     inkscape:connector-curvature="0"
     d="m 23.722735,13.856296 1.586447,-1.586765 c 0.109815,-0.109498 0.109815,-0.287114 0,-0.396612 -0.109498,-0.109498 -0.286796,-0.109498 -0.396612,0 l -1.586446,1.586764 c -0.109816,0.109498 -0.109816,0.287115 0,0.396613 0.109179,0.109497 0.286795,0.109497 0.396611,0"
     id="path68"
     style="stroke-width:0.31830785" /><path
     inkscape:connector-curvature="0"
     d="m 4.9597634,21.196791 -3.6653146,0.0783 c -0.1527879,0.0054 -0.2731085,0.132416 -0.2705616,0.285522 0.00286,0.156607 0.1336893,0.280748 0.2902964,0.275336 l 3.6653147,-0.07862 c 0.1527878,-0.005 0.2731084,-0.132097 0.2705615,-0.285204 -0.00257,-0.156606 -0.1333708,-0.280746 -0.2902964,-0.275336"
     id="path70"
     style="stroke-width:0.31830785" /><path
     inkscape:connector-curvature="0"
     d="m 15.853529,10.755022 c 0.155017,0 0.318309,-0.125732 0.318309,-0.280429 V 6.80896 c 0,-0.1550159 -0.163292,-0.2804292 -0.318309,-0.2804292 -0.155015,0 -0.318307,0.1254133 -0.318307,0.2804292 v 3.665633 c 0,0.154697 0.163292,0.280429 0.318307,0.280429"
     id="path72"
     style="stroke-width:0.31830785" /><path
     inkscape:connector-curvature="0"
     d="m 8.351015,28.831405 c -0.1094982,-0.109498 -0.287114,-0.109498 -0.3966113,0 l -1.5867646,1.586764 c -0.1098166,0.109498 -0.1098166,0.287114 0,0.396931 0.1094973,0.109497 0.2871131,0.109497 0.3966113,0 L 8.351015,29.228016 c 0.1091797,-0.109498 0.1091797,-0.287113 0,-0.396611"
     id="path74"
     style="stroke-width:0.31830785" /><path
     inkscape:connector-curvature="0"
     d="m 7.9540852,13.856296 c 0.1094974,0.109497 0.2871133,0.109497 0.3966114,0 0.1094981,-0.109498 0.1094981,-0.287115 0,-0.396613 L 6.763932,11.872919 c -0.1094981,-0.109498 -0.2871133,-0.109498 -0.3966114,0 -0.1094981,0.109498 -0.1094981,0.287114 0,0.396612 z"
     id="path76"
     style="stroke-width:0.31830785" /><path
     style="fill:none;stroke:#000000;stroke-width:0;stroke-linecap:butt;stroke-linejoin:miter;stroke-opacity:1;stroke-miterlimit:4;stroke-dasharray:none"
     d="M 11.07764,15.825347 10.305106,16.601382 9.9600604,16.256336 10.73323,15.480939 Z"
     id="path4715"
     inkscape:connector-curvature="0" /><path
     style="fill:none;stroke:#000000;stroke-width:0;stroke-linecap:butt;stroke-linejoin:miter;stroke-opacity:1;stroke-miterlimit:4;stroke-dasharray:none"
     d="m 10.73323,15.480939 -0.7731696,0.775397 0.3450456,0.345046 0.772534,-0.776035 z"
     id="path4720"
     inkscape:connector-curvature="0" /><path
     id="path4724"
     style="fill:#000000;stroke:none;stroke-width:1px;stroke-linecap:butt;stroke-linejoin:miter;stroke-opacity:1;fill-opacity:1"
     d="m 10.73323,15.480939 -0.7731696,0.775397 0.3450456,0.345046 0.772534,-0.776035 z m -0.05507,11.023317 C 7.9664992,23.792592 7.8480886,19.465515 10.305106,16.601382 L 9.9600604,16.256336 c -2.6448192,3.052254 -2.5209971,7.688089 0.3784676,10.587554 0.715874,0.715875 1.538701,1.260818 2.416593,1.63865 l 0.338362,-0.376876 c -0.879484,-0.355551 -1.703265,-0.889353 -2.41532,-1.601408 M 21.338291,15.843809 C 18.433096,12.938613 13.785166,12.820521 10.73323,15.480939 l 0.34441,0.344408 c 1.364266,-1.178375 3.060211,-1.775839 4.760929,-1.775839 1.868467,0 3.737252,0.711419 5.160088,2.133935 0.516614,0.516933 0.938372,1.092752 1.266866,1.705813 l 0.339315,-0.377833 C 22.267432,16.914597 21.84631,16.352147 21.338291,15.843809" /></svg>