<?xml version="1.0" encoding="UTF-8" standalone="no"?>
<svg
   xmlns:dc="http://purl.org/dc/elements/1.1/"
   xmlns:cc="http://creativecommons.org/ns#"
   xmlns:rdf="http://www.w3.org/1999/02/22-rdf-syntax-ns#"
   xmlns:svg="http://www.w3.org/2000/svg"
   xmlns="http://www.w3.org/2000/svg"
   xmlns:sodipodi="http://sodipodi.sourceforge.net/DTD/sodipodi-0.dtd"
   xmlns:inkscape="http://www.inkscape.org/namespaces/inkscape"
   viewBox="0 0 42.666668 42.666668"
   height="42.666668"
   width="42.666668"
   xml:space="preserve"
   id="svg2"
   version="1.1"
   sodipodi:docname="13d.svg"
   inkscape:version="0.92.3 (2405546, 2018-03-11)"><sodipodi:namedview
     pagecolor="#ffffff"
     bordercolor="#666666"
     borderopacity="1"
     objecttolerance="10"
     gridtolerance="10"
     guidetolerance="10"
     inkscape:pageopacity="0"
     inkscape:pageshadow="2"
     inkscape:window-width="1019"
     inkscape:window-height="1021"
     id="namedview28"
     showgrid="false"
     inkscape:zoom="8.9844101"
     inkscape:cx="15.743033"
     inkscape:cy="21.257088"
     inkscape:window-x="660"
     inkscape:window-y="0"
     inkscape:window-maximized="0"
     inkscape:current-layer="svg2" /><metadata
     id="metadata8"><rdf:RDF><cc:Work
         rdf:about=""><dc:format>image/svg+xml</dc:format><dc:type
           rdf:resource="http://purl.org/dc/dcmitype/StillImage" /><dc:title></dc:title></cc:Work></rdf:RDF></metadata><defs
     id="defs6"><clipPath
       id="clipPath18"
       clipPathUnits="userSpaceOnUse"><path
         id="path16"
         d="M 0,32 H 32 V 0 H 0 Z" /></clipPath></defs><path
     inkscape:connector-curvature="0"
     d="m 15.722756,16.208932 c 0,-1.848414 0.904631,-3.887176 2.420094,-4.960828 0.141329,-0.100267 0.292206,-0.196714 0.448177,-0.286796 0.8693,-0.501653 1.855416,-0.766484 2.851402,-0.766484 2.966947,0 5.471073,2.315052 5.700573,5.270222 l 0.03628,0.281066 0.280112,-0.0099 c 3.099681,0.0012 5.717126,2.720258 5.717126,5.938669 0,3.219047 -2.619355,5.938987 -5.719674,5.938987 -1.301561,0 -2.425824,-0.366054 -3.341912,-1.180922 l -0.08372,-0.02737 h -0.298568 l -0.110771,0.03852 c -0.565951,0.439264 -1.744327,1.329571 -3.615339,1.329571 -1.373818,0 -2.320465,-0.446904 -3.490883,-1.61764 l -0.203398,-0.209129 -0.208174,0.195442 c -1.012219,0.966063 -2.327149,1.475038 -3.801868,1.475038 -3.1541131,0 -5.7199921,-2.551874 -5.7199921,-5.687843 0,-0.878211 0.200216,-1.728729 0.594599,-2.527046 0.07035,-0.142283 0.147695,-0.284248 0.230773,-0.421757 1.047869,-1.735415 2.8568121,-2.771824 4.8736111,-2.771824 0.490831,0 1.104846,0.06589 1.423155,0.188119 v -0.608923 c -0.318309,-0.110452 -0.933916,-0.167748 -1.423155,-0.167748 -2.224653,0 -4.2325391,1.142726 -5.3879961,3.056074 -0.09167,0.151514 -0.171886,0.308122 -0.249554,0.465047 -0.434808,0.88044 -0.652849,1.818174 -0.652849,2.78774 0,3.460325 2.831348,6.276075 6.3098161,6.276075 1.529788,0 2.906468,-0.499743 3.999537,-1.447981 1.195247,1.134448 2.255212,1.581671 3.706378,1.581671 1.952499,0 3.206631,-0.884896 3.862028,-1.388141 0.989619,0.819961 2.225925,1.251905 3.587964,1.251905 3.41958,0 6.308224,-2.989229 6.308224,-6.527539 0,-3.453003 -2.751134,-6.383027 -6.061854,-6.522444 -0.378468,-3.131195 -3.078353,-5.5465152 -6.261113,-5.5465152 -1.099435,0 -2.187093,0.2922077 -3.145518,0.8454252 -0.172204,0.099 -0.338361,0.205309 -0.49465,0.316399 -1.670798,1.183787 -2.668374,3.402392 -2.668374,5.441154 0,0.0089 9.31e-4,0 9.31e-4,0.0089"
     id="path22"
     style="stroke-width:0.31830785" /><path
     style="fill:none;stroke:#000000;stroke-width:0;stroke-linecap:butt;stroke-linejoin:miter;stroke-miterlimit:4;stroke-dasharray:none;stroke-opacity:1"
     d="M 3.1995721,8.0261918 2.4270381,8.8022268 2.0819926,8.4571808 2.8551621,7.6817838 Z"
     id="path4715"
     inkscape:connector-curvature="0" /><path
     style="fill:none;stroke:#000000;stroke-width:0;stroke-linecap:butt;stroke-linejoin:miter;stroke-miterlimit:4;stroke-dasharray:none;stroke-opacity:1"
     d="m 2.8551621,7.6817838 -0.7731695,0.775397 0.3450455,0.345046 0.772534,-0.776035 z"
     id="path4720"
     inkscape:connector-curvature="0" /><path
     style="stroke-width:0.31830785"
     d="m 28.260487,6.5386555 c -1.099435,0 -2.186106,0.2924851 -3.144531,0.8457031 -0.172204,0.099 -0.339805,0.2053163 -0.496094,0.3164063 -0.851479,0.6032867 -1.525521,1.4750434 -1.984375,2.4550771 -8.71e-4,0.0019 -0.0011,0.004 -0.002,0.0059 0.06079,0.0047 0.06441,9.93e-4 0.130859,0.02539 0.0138,0.0051 0.02692,0.01122 0.03906,0.01953 0.0051,0.0035 0.0036,0.01282 0.0098,0.01367 0.198915,0.0278 -0.07649,-0.06575 0.199218,0.04883 0.02355,0.02702 0.02338,0.02095 -0.02734,-0.0059 -0.0058,-0.0031 0.0113,0.0078 0.01758,0.0098 0.07427,0.02397 0.152023,0.0042 0.228515,0.0098 h 0.002 c 0.413783,-0.8380084 0.997072,-1.5853129 1.728516,-2.1035155 0.141329,-0.100267 0.293248,-0.1970274 0.449219,-0.2871094 0.8693,-0.501653 1.853623,-0.765625 2.849609,-0.765625 2.966947,0 5.471672,2.3143605 5.701172,5.2695309 l 0.03711,0.28125 0.279296,-0.0098 c 3.099681,0.0012 5.716797,2.721042 5.716797,5.939453 0,3.219047 -2.618431,5.939453 -5.71875,5.939454 -0.482244,0 -0.931306,-0.06899 -1.363281,-0.173829 -0.0093,0.01651 -0.004,0.01313 -0.02148,0.04492 -0.05262,0.09585 -0.0823,0.152169 -0.154297,0.232422 -0.0029,0.0053 -0.01566,0.01563 -0.0098,0.01563 0.0077,-1.3e-5 0.01912,-0.02314 0.01758,-0.01563 -0.0015,0.0074 -0.03864,0.11345 -0.05078,0.136719 -0.06417,0.123 -0.02228,0.02552 -0.04102,0.06836 -0.0061,0.01441 -0.0093,0.02361 -0.0098,0.03711 0.518514,0.149011 1.061016,0.242187 1.632812,0.242187 3.41958,0 6.308594,-2.989034 6.308594,-6.527344 0,-3.453003 -2.75178,-6.382067 -6.0625,-6.521484 C 34.143834,8.954339 31.443247,6.5386555 28.260487,6.5386555 Z"
     id="path1390"
     inkscape:connector-curvature="0" /><circle
     cx="14.91374"
     cy="30.65082"
     id="circle170"
     r="0.55266142"
     style="stroke-width:0.36992064" /><circle
     cx="20.832832"
     cy="30.65082"
     id="circle172"
     r="0.55266142"
     style="stroke-width:0.36992064" /><circle
     cx="26.751934"
     cy="30.65082"
     id="circle174"
     r="0.55266142"
     style="stroke-width:0.36992064" /><circle
     cx="17.503185"
     cy="32.870705"
     id="circle176"
     r="0.55266142"
     style="stroke-width:0.36992064" /><circle
     cx="23.052357"
     cy="32.870705"
     id="circle178"
     r="0.55266142"
     style="stroke-width:0.36992064" /><circle
     cx="13.803606"
     cy="34.720692"
     id="circle180"
     r="0.55266142"
     style="stroke-width:0.36992064" /><circle
     cx="19.72271"
     cy="34.720692"
     id="circle182"
     r="0.55266142"
     style="stroke-width:0.36992064" /><circle
     cx="11.953257"
     cy="32.870705"
     id="circle184"
     r="0.55266142"
     style="stroke-width:0.36992064" /></svg>