<?xml version="1.0" encoding="UTF-8" standalone="no"?>
<svg
   xmlns:dc="http://purl.org/dc/elements/1.1/"
   xmlns:cc="http://creativecommons.org/ns#"
   xmlns:rdf="http://www.w3.org/1999/02/22-rdf-syntax-ns#"
   xmlns:svg="http://www.w3.org/2000/svg"
   xmlns="http://www.w3.org/2000/svg"
   xmlns:sodipodi="http://sodipodi.sourceforge.net/DTD/sodipodi-0.dtd"
   xmlns:inkscape="http://www.inkscape.org/namespaces/inkscape"
   viewBox="0 0 42.666668 42.666668"
   height="42.666668"
   width="42.666668"
   xml:space="preserve"
   id="svg2"
   version="1.1"
   sodipodi:docname="50d.svg"
   inkscape:version="0.92.3 (2405546, 2018-03-11)"><sodipodi:namedview
     pagecolor="#ffffff"
     bordercolor="#666666"
     borderopacity="1"
     objecttolerance="10"
     gridtolerance="10"
     guidetolerance="10"
     inkscape:pageopacity="0"
     inkscape:pageshadow="2"
     inkscape:window-width="1019"
     inkscape:window-height="1021"
     id="namedview28"
     showgrid="false"
     inkscape:zoom="4.492205"
     inkscape:cx="31.301028"
     inkscape:cy="21.715272"
     inkscape:window-x="660"
     inkscape:window-y="0"
     inkscape:window-maximized="0"
     inkscape:current-layer="svg2" /><metadata
     id="metadata8"><rdf:RDF><cc:Work
         rdf:about=""><dc:format>image/svg+xml</dc:format><dc:type
           rdf:resource="http://purl.org/dc/dcmitype/StillImage" /><dc:title></dc:title></cc:Work></rdf:RDF></metadata><defs
     id="defs6"><clipPath
       id="clipPath18"
       clipPathUnits="userSpaceOnUse"><path
         id="path16"
         d="M 0,32 H 32 V 0 H 0 Z" /></clipPath></defs><path
     inkscape:connector-curvature="0"
     d="M 30.684192,21.629431 H 5.328975 c -0.233604,0 -0.424554,-0.19095 -0.424554,-0.424554 0,-0.233605 0.19095,-0.424555 0.424554,-0.424555 h 25.355217 c 0.233605,0 0.424059,0.19095 0.424059,0.424555 4.96e-4,0.2341 -0.190454,0.424554 -0.424059,0.424554"
     id="path38"
     style="stroke-width:0.49597466" /><path
     inkscape:connector-curvature="0"
     d="M 33.66004,25.613099 H 10.288722 c -0.233604,0 -0.424554,-0.19095 -0.424554,-0.424554 0,-0.233604 0.19095,-0.424554 0.424554,-0.424554 H 33.66004 c 0.233605,0 0.424059,0.19095 0.424059,0.424554 0,0.233604 -0.190454,0.424554 -0.424059,0.424554"
     id="path40"
     style="stroke-width:0.49597466" /><path
     inkscape:connector-curvature="0"
     d="M 23.514383,29.596272 H 16.01475 c -0.233604,0 -0.424555,-0.19095 -0.424555,-0.424554 0,-0.233604 0.190951,-0.424555 0.424555,-0.424555 h 7.499633 c 0.2341,0 0.42505,0.190951 0.42505,0.424555 0,0.233604 -0.19095,0.424554 -0.42505,0.424554"
     id="path42"
     style="stroke-width:0.49597466" /><path
     inkscape:connector-curvature="0"
     d="m 11.261328,13.919505 h 21.883395 c 0.233604,0 0.424554,-0.19095 0.424554,-0.424555 0,-0.233604 -0.19095,-0.424554 -0.424554,-0.424554 H 11.261328 Z"
     id="path54"
     style="stroke-width:0.49597466" /><path
     inkscape:connector-curvature="0"
     d="M 5.404363,13.919505 H 9.432174 V 13.070396 H 5.404363 c -0.233604,0 -0.42505,0.19095 -0.42505,0.424554 4.96e-4,0.233109 0.191446,0.424555 0.42505,0.424555"
     id="path56"
     style="stroke-width:0.49597466" /><path
     inkscape:connector-curvature="0"
     d="m 9.999569,17.902677 h 27.33862 c 0.233604,0 0.424058,-0.19095 0.424058,-0.424554 0,-0.233604 -0.19095,-0.424555 -0.424058,-0.424555 H 9.999569 c -0.233604,0 -0.424554,0.190951 -0.424554,0.424555 0,0.233604 0.19095,0.424554 0.424554,0.424554"
     id="path58"
     style="stroke-width:0.49597466" /></svg>