<?xml version="1.0" encoding="UTF-8" standalone="no"?>
<svg
   xmlns:dc="http://purl.org/dc/elements/1.1/"
   xmlns:cc="http://creativecommons.org/ns#"
   xmlns:rdf="http://www.w3.org/1999/02/22-rdf-syntax-ns#"
   xmlns:svg="http://www.w3.org/2000/svg"
   xmlns="http://www.w3.org/2000/svg"
   xmlns:sodipodi="http://sodipodi.sourceforge.net/DTD/sodipodi-0.dtd"
   xmlns:inkscape="http://www.inkscape.org/namespaces/inkscape"
   viewBox="0 0 42.666668 42.666668"
   height="42.666668"
   width="42.666668"
   xml:space="preserve"
   id="svg2"
   version="1.1"
   sodipodi:docname="01d.svg"
   inkscape:version="0.92.3 (2405546, 2018-03-11)"><sodipodi:namedview
     pagecolor="#ffffff"
     bordercolor="#666666"
     borderopacity="1"
     objecttolerance="10"
     gridtolerance="10"
     guidetolerance="10"
     inkscape:pageopacity="0"
     inkscape:pageshadow="2"
     inkscape:window-width="1067"
     inkscape:window-height="600"
     id="namedview28"
     showgrid="false"
     inkscape:zoom="5.5312498"
     inkscape:cx="20.087972"
     inkscape:cy="17.185833"
     inkscape:window-x="0"
     inkscape:window-y="0"
     inkscape:window-maximized="0"
     inkscape:current-layer="svg2" /><metadata
     id="metadata8"><rdf:RDF><cc:Work
         rdf:about=""><dc:format>image/svg+xml</dc:format><dc:type
           rdf:resource="http://purl.org/dc/dcmitype/StillImage" /><dc:title></dc:title></cc:Work></rdf:RDF></metadata><defs
     id="defs6"><clipPath
       id="clipPath18"
       clipPathUnits="userSpaceOnUse"><path
         id="path16"
         d="M 0,32 H 32 V 0 H 0 Z" /></clipPath></defs><path
     inkscape:connector-curvature="0"
     d="m 31.646488,11.019621 v 0 c -0.150771,-0.150771 -0.150771,-0.395529 0,-0.5463 l 2.185983,-2.185984 c 0.150772,-0.1507709 0.395529,-0.1507709 0.5463,0 0.150771,0.1511629 0.150771,0.3955291 0,0.5466919 l -2.185983,2.1855921 c -0.150771,0.150771 -0.395529,0.150771 -0.5463,0"
     id="path2"
     style="stroke-width:0.39161289" /><path
     inkscape:connector-curvature="0"
     d="m 41.35418,21.720052 h -5.049065 c -0.213429,0 -0.386522,-0.173093 -0.386522,-0.386522 0,-0.213429 0.173093,-0.38613 0.386522,-0.38613 h 5.049065 c 0.213429,0 0.386522,0.172701 0.386522,0.38613 0,0.213429 -0.173093,0.386522 -0.386522,0.386522"
     id="path4"
     style="stroke-width:0.39161289" /><path
     inkscape:connector-curvature="0"
     d="m 21.332579,41.741654 v 0 c -0.213429,0 -0.386522,-0.173094 -0.386522,-0.386523 v -5.049065 c 0,-0.213429 0.173093,-0.386522 0.386522,-0.386522 0.213429,0 0.386522,0.173093 0.386522,0.386522 v 5.049065 c -3.92e-4,0.213821 -0.173093,0.386523 -0.386522,0.386523"
     id="path6"
     style="stroke-width:0.39161289" /><path
     inkscape:connector-curvature="0"
     d="m 0.92602114,21.631939 v 0 C 0.92251114,21.421251 1.0881489,21.2462 1.2988367,21.239151 l 5.0486739,-0.108085 c 0.2161704,-0.0078 0.3963122,0.163303 0.3998366,0.379081 0.00392,0.21108 -0.1621277,0.385739 -0.3728155,0.39318 l -5.0486734,0.108085 c -0.215779,0.0074 -0.39592096,-0.163303 -0.39983716,-0.379473"
     id="path8"
     style="stroke-width:0.39161289" /><path
     inkscape:connector-curvature="0"
     d="m 21.332579,6.7475153 v 0 c -0.213429,0 -0.386522,-0.1730932 -0.386522,-0.3865223 V 1.311536 c 0,-0.213429 0.173093,-0.38652173 0.386522,-0.38652173 0.213429,0 0.386522,0.17309273 0.386522,0.38652173 v 5.0490658 c -3.92e-4,0.213429 -0.173093,0.3869135 -0.386522,0.3869135"
     id="path10"
     style="stroke-width:0.39161289" /><path
     inkscape:connector-curvature="0"
     d="m 33.832471,34.380114 -2.185983,-2.185983 c -0.150771,-0.150772 -0.150771,-0.395529 0,-0.5463 0.150771,-0.150771 0.395529,-0.150771 0.5463,0 l 2.185983,2.185983 c 0.150771,0.150771 0.150771,0.395529 0,0.5463 -0.150771,0.150379 -0.395528,0.150379 -0.5463,0"
     id="path12"
     style="stroke-width:0.39161289" /><path
     inkscape:connector-curvature="0"
     d="m 8.2863856,34.380114 v 0 c -0.1507708,-0.150771 -0.1507708,-0.395529 0,-0.5463 l 2.1859834,-2.185983 c 0.150772,-0.150771 0.39553,-0.150771 0.5463,0 0.150771,0.150771 0.150771,0.395528 0,0.5463 l -2.1859833,2.185983 c -0.1511619,0.150379 -0.3959205,0.150379 -0.5463001,0"
     id="path14"
     style="stroke-width:0.39161289" /><path
     inkscape:connector-curvature="0"
     d="M 10.471978,11.019621 8.2859945,8.8340289 c -0.1507708,-0.1511628 -0.1507708,-0.395529 0,-0.5466919 0.1507707,-0.1507709 0.3955293,-0.1507709 0.5463001,0 l 2.1859834,2.185984 c 0.150771,0.150771 0.150771,0.395529 0,0.5463 -0.150379,0.150771 -0.395137,0.150771 -0.5463,0"
     id="path16-3"
     style="stroke-width:0.39161289" /><path
     inkscape:connector-curvature="0"
     d="M 28.908722,13.757387 C 24.90683,9.7554937 18.50435,9.592583 14.300386,13.257297 l 0.474243,0.474635 c 1.879742,-1.623236 4.215713,-2.446015 6.55795,-2.446015 2.574072,0 5.148534,0.979424 7.108166,2.939447 3.919261,3.919262 3.919261,10.296678 0,14.216332 -3.919654,3.919653 -10.296679,3.919262 -14.216332,0 C 10.489209,24.7061 10.326298,18.745751 13.710617,14.800644 l -0.475419,-0.475419 c -3.6431743,4.204357 -3.4728233,10.590389 0.521237,14.584448 2.088864,2.088472 4.832504,3.132903 7.576144,3.132903 2.74364,0 5.48728,-1.044431 7.576143,-3.132903 4.177335,-4.177727 4.177335,-10.974952 0,-15.152286"
     id="path18"
     style="stroke-width:0.39161289" /><path
     inkscape:connector-curvature="0"
     d="m 28.911248,28.909652 c 4.001893,-4.001892 4.164804,-10.404372 0.50009,-14.608336 l -0.474635,0.474243 c 1.623236,1.879742 2.446015,4.215713 2.446015,6.55795 0,2.574072 -0.979424,5.148534 -2.939447,7.108166 -3.919262,3.919261 -10.296678,3.919261 -14.216332,0 -3.919653,-3.919654 -3.919262,-10.296679 0,-14.216332 3.735596,-3.735204 9.695945,-3.898115 13.641052,-0.513796 L 28.34341,13.236128 C 24.139053,9.5929533 17.753021,9.7633043 13.758962,13.757365 c -2.088472,2.088864 -3.132903,4.832504 -3.132903,7.576144 0,2.74364 1.044431,5.48728 3.132903,7.576143 4.177727,4.177335 10.974952,4.177335 15.152286,0"
     id="path18-6"
     style="stroke-width:0.39161289" /></svg>