<?xml version="1.0" encoding="UTF-8" standalone="no"?>
<svg
   xmlns:dc="http://purl.org/dc/elements/1.1/"
   xmlns:cc="http://creativecommons.org/ns#"
   xmlns:rdf="http://www.w3.org/1999/02/22-rdf-syntax-ns#"
   xmlns:svg="http://www.w3.org/2000/svg"
   xmlns="http://www.w3.org/2000/svg"
   xmlns:sodipodi="http://sodipodi.sourceforge.net/DTD/sodipodi-0.dtd"
   xmlns:inkscape="http://www.inkscape.org/namespaces/inkscape"
   viewBox="0 0 42.666668 42.666668"
   height="42.666668"
   width="42.666668"
   xml:space="preserve"
   id="svg2"
   version="1.1"
   sodipodi:docname="02n.svg"
   inkscape:version="0.92.3 (2405546, 2018-03-11)"><sodipodi:namedview
     pagecolor="#ffffff"
     bordercolor="#666666"
     borderopacity="1"
     objecttolerance="10"
     gridtolerance="10"
     guidetolerance="10"
     inkscape:pageopacity="0"
     inkscape:pageshadow="2"
     inkscape:window-width="1351"
     inkscape:window-height="819"
     id="namedview28"
     showgrid="false"
     inkscape:zoom="8.98441"
     inkscape:cx="29.987995"
     inkscape:cy="13.10763"
     inkscape:window-x="0"
     inkscape:window-y="0"
     inkscape:window-maximized="0"
     inkscape:current-layer="svg2" /><metadata
     id="metadata8"><rdf:RDF><cc:Work
         rdf:about=""><dc:format>image/svg+xml</dc:format><dc:type
           rdf:resource="http://purl.org/dc/dcmitype/StillImage" /><dc:title></dc:title></cc:Work></rdf:RDF></metadata><defs
     id="defs6"><clipPath
       id="clipPath18"
       clipPathUnits="userSpaceOnUse"><path
         id="path16"
         d="M 0,32 H 32 V 0 H 0 Z" /></clipPath></defs><path
     inkscape:connector-curvature="0"
     d="m 19.906669,20.369741 c 0,-2.103683 1.029562,-4.424002 2.754313,-5.645927 0.160847,-0.114114 0.33256,-0.223881 0.510071,-0.326403 0.989352,-0.570932 2.111652,-0.872337 3.245186,-0.872337 3.376687,0 6.226637,2.634765 6.487832,5.998049 l 0.04129,0.319882 0.318796,-0.01127 c 3.527752,0.0014 6.506671,3.095931 6.506671,6.75881 0,3.663603 -2.981092,6.759171 -6.509571,6.759171 -1.481309,0 -2.760834,-0.416606 -3.803436,-1.344009 l -0.09528,-0.03115 h -0.3398 l -0.126069,0.04384 c -0.64411,0.499927 -1.985222,1.513187 -4.114624,1.513187 -1.563544,0 -2.640925,-0.508622 -3.97298,-1.841039 l -0.231487,-0.23801 -0.236923,0.222433 c -1.152009,1.099478 -2.648533,1.678743 -4.326913,1.678743 -3.589702,0 -6.5099327,-2.904292 -6.5099327,-6.473344 0,-0.999493 0.227866,-1.967469 0.6767137,-2.876035 0.08007,-0.161933 0.168092,-0.323503 0.262643,-0.480003 1.192582,-1.975078 3.251343,-3.154617 5.546666,-3.154617 0.558615,0 1.257427,0.07499 1.619695,0.214098 v -0.693016 c -0.362268,-0.125706 -1.062892,-0.190914 -1.619695,-0.190914 -2.531882,0 -4.81706,1.300538 -6.1320877,3.478123 -0.10433,0.172438 -0.195624,0.350674 -0.284018,0.529271 -0.494856,1.00203 -0.743009,2.069267 -0.743009,3.172731 0,3.938202 3.2223627,7.142812 7.1812127,7.142812 1.741054,0 3.307856,-0.568758 4.55188,-1.64795 1.360313,1.291118 2.566661,1.800103 4.218235,1.800103 2.222143,0 3.649473,-1.007102 4.395381,-1.579846 1.126287,0.933199 2.533329,1.424796 4.083468,1.424796 3.89183,0 7.179401,-3.402047 7.179401,-7.429004 0,-3.929869 -3.13107,-7.264534 -6.899007,-7.423205 -0.430735,-3.563618 -3.503479,-6.312498 -7.125783,-6.312498 -1.251269,0 -2.489135,0.332561 -3.57992,0.962179 -0.195985,0.112673 -0.385089,0.233663 -0.562962,0.360095 -1.901538,1.34727 -3.036881,3.872268 -3.036881,6.192587 0,0.01013 0.0011,0 0.0011,0.01013"
     id="path22"
     style="stroke-width:0.36226672" /><path
     style="fill:none;stroke:#000000;stroke-width:0;stroke-linecap:butt;stroke-linejoin:miter;stroke-miterlimit:4;stroke-dasharray:none;stroke-opacity:1"
     d="M 5.6540116,11.05695 4.7747893,11.940157 4.3820923,11.54746 5.262038,10.664979 Z"
     id="path4715"
     inkscape:connector-curvature="0" /><path
     style="fill:none;stroke:#000000;stroke-width:0;stroke-linecap:butt;stroke-linejoin:miter;stroke-miterlimit:4;stroke-dasharray:none;stroke-opacity:1"
     d="M 5.262038,10.664979 4.3820923,11.54746 4.7747893,11.940157 5.6540116,11.05695 Z"
     id="path4720"
     inkscape:connector-curvature="0" /><path
     id="path4724"
     style="fill:#000000;fill-opacity:1;stroke:none;stroke-width:1.1381017px;stroke-linecap:butt;stroke-linejoin:miter;stroke-opacity:1"
     d="M 5.262038,10.664979 4.3820923,11.54746 4.7747893,11.940157 5.6540116,11.05695 Z M 5.1993627,23.210635 C 2.1132169,20.124486 1.9784535,15.199832 4.7747893,11.940157 L 4.3820923,11.54746 c -3.0100733,3.473775 -2.8691512,8.749827 0.4307347,12.049713 0.8147374,0.814739 1.7511983,1.434939 2.7503287,1.864951 L 7.9482461,25.0332 C 6.9473038,24.628547 6.0097572,24.021026 5.1993662,23.210635 M 17.331676,11.077962 C 14.025269,7.7715535 8.7354517,7.6371528 5.262038,10.664979 L 5.6540116,11.05695 C 7.2066851,9.7158402 9.1368433,9.0358652 11.072433,9.0358652 c 2.126505,0 4.253373,0.809667 5.872705,2.4286348 0.587959,0.588322 1.067963,1.243663 1.441822,1.941389 l 0.386175,-0.430013 c -0.384002,-0.679248 -0.863282,-1.319374 -1.441459,-1.897914"
     inkscape:connector-curvature="0" /></svg>