<?xml version="1.0" encoding="UTF-8" standalone="no"?>
<svg
   xmlns:dc="http://purl.org/dc/elements/1.1/"
   xmlns:cc="http://creativecommons.org/ns#"
   xmlns:rdf="http://www.w3.org/1999/02/22-rdf-syntax-ns#"
   xmlns:svg="http://www.w3.org/2000/svg"
   xmlns="http://www.w3.org/2000/svg"
   xmlns:sodipodi="http://sodipodi.sourceforge.net/DTD/sodipodi-0.dtd"
   xmlns:inkscape="http://www.inkscape.org/namespaces/inkscape"
   viewBox="0 0 42.666668 42.666668"
   height="42.666668"
   width="42.666668"
   xml:space="preserve"
   id="svg2"
   version="1.1"
   sodipodi:docname="03d.svg"
   inkscape:version="0.92.3 (2405546, 2018-03-11)"><sodipodi:namedview
     pagecolor="#ffffff"
     bordercolor="#666666"
     borderopacity="1"
     objecttolerance="10"
     gridtolerance="10"
     guidetolerance="10"
     inkscape:pageopacity="0"
     inkscape:pageshadow="2"
     inkscape:window-width="1019"
     inkscape:window-height="1021"
     id="namedview28"
     showgrid="false"
     inkscape:zoom="6.3529373"
     inkscape:cx="26.401508"
     inkscape:cy="28.044288"
     inkscape:window-x="660"
     inkscape:window-y="0"
     inkscape:window-maximized="0"
     inkscape:current-layer="svg2" /><metadata
     id="metadata8"><rdf:RDF><cc:Work
         rdf:about=""><dc:format>image/svg+xml</dc:format><dc:type
           rdf:resource="http://purl.org/dc/dcmitype/StillImage" /><dc:title></dc:title></cc:Work></rdf:RDF></metadata><defs
     id="defs6"><clipPath
       id="clipPath18"
       clipPathUnits="userSpaceOnUse"><path
         id="path16"
         d="M 0,32 H 32 V 0 H 0 Z" /></clipPath></defs><path
     inkscape:connector-curvature="0"
     d="m 15.36508,17.3636 c 0,-2.65505 1.299407,-5.583516 3.476209,-7.125703 0.203003,-0.144023 0.419722,-0.282559 0.643758,-0.411951 1.248657,-0.720571 2.665109,-1.100973 4.095737,-1.100973 4.261703,0 7.858615,3.325326 8.188267,7.570114 l 0.05211,0.403722 0.402351,-0.01422 c 4.452363,0.0018 8.212045,3.907362 8.212045,8.530267 0,4.623819 -3.762426,8.530724 -8.215705,8.530724 -1.869553,0 -3.484437,-0.525797 -4.800301,-1.696268 L 27.2993,32.009992 h -0.428861 l -0.159112,0.05533 c -0.812927,0.630956 -2.505539,1.909787 -5.193049,1.909787 -1.973344,0 -3.333102,-0.64193 -5.014282,-2.323568 l -0.292158,-0.300389 -0.299019,0.280731 c -1.453946,1.387647 -3.342703,2.118736 -5.46098,2.118736 -4.5305485,0 -8.2161612,-3.665496 -8.2161612,-8.169982 0,-1.261457 0.2875884,-2.483137 0.8540785,-3.629834 0.10105,-0.204374 0.2121479,-0.408292 0.3314802,-0.605809 1.5051523,-2.49274 4.1035077,-3.981431 7.0004245,-3.981431 0.705028,0 1.586994,0.09465 2.044211,0.270214 V 16.759123 C 12.008655,16.60047 11.124401,16.51817 10.421661,16.51817 c -3.1954769,0 -6.0795922,1.641405 -7.7392842,4.389726 -0.1316738,0.217634 -0.2468952,0.442585 -0.3584569,0.66799 -0.624556,1.26466 -0.9377486,2.611615 -0.9377486,4.004293 0,4.970389 4.0669305,9.014915 9.0633807,9.014915 2.197378,0 4.174832,-0.717827 5.744911,-2.07987 1.716845,1.629514 3.239372,2.271902 5.323818,2.271902 2.804557,0 4.605985,-1.271059 5.547393,-1.993917 1.421482,1.177787 3.197304,1.798228 5.153729,1.798228 4.911863,0 9.061094,-4.29371 9.061094,-9.376116 0,-4.959872 -3.951713,-9.168541 -8.707209,-9.368798 -0.54363,-4.49763 -4.421728,-7.966981 -8.993424,-7.966981 -1.579222,0 -3.141528,0.419726 -4.518203,1.214364 -0.247353,0.142203 -0.48602,0.294906 -0.710512,0.454474 -2.399924,1.700385 -3.832836,4.887175 -3.832836,7.815639 0,0.01278 0.0014,0 0.0014,0.01278"
     id="path22"
     style="stroke-width:0.4572154" /><path
     style="fill:none;stroke:#000000;stroke-width:0;stroke-linecap:butt;stroke-linejoin:miter;stroke-miterlimit:4;stroke-dasharray:none;stroke-opacity:1"
     d="M 6.6095341,11.349143 5.8370001,12.125178 5.4919546,11.780132 6.2651241,11.004735 Z"
     id="path4715"
     inkscape:connector-curvature="0" /><path
     style="fill:none;stroke:#000000;stroke-width:0;stroke-linecap:butt;stroke-linejoin:miter;stroke-miterlimit:4;stroke-dasharray:none;stroke-opacity:1"
     d="m 6.2651241,11.004735 -0.7731695,0.775397 0.3450455,0.345046 0.772534,-0.776035 z"
     id="path4720"
     inkscape:connector-curvature="0" /></svg>