<?xml version="1.0" encoding="UTF-8" standalone="no"?>
<svg
   xmlns:dc="http://purl.org/dc/elements/1.1/"
   xmlns:cc="http://creativecommons.org/ns#"
   xmlns:rdf="http://www.w3.org/1999/02/22-rdf-syntax-ns#"
   xmlns:svg="http://www.w3.org/2000/svg"
   xmlns="http://www.w3.org/2000/svg"
   xmlns:sodipodi="http://sodipodi.sourceforge.net/DTD/sodipodi-0.dtd"
   xmlns:inkscape="http://www.inkscape.org/namespaces/inkscape"
   viewBox="0 0 42.666668 42.666668"
   height="42.666668"
   width="42.666668"
   xml:space="preserve"
   id="svg2"
   version="1.1"
   sodipodi:docname="04d.svg"
   inkscape:version="0.92.3 (2405546, 2018-03-11)"><sodipodi:namedview
     pagecolor="#ffffff"
     bordercolor="#666666"
     borderopacity="1"
     objecttolerance="10"
     gridtolerance="10"
     guidetolerance="10"
     inkscape:pageopacity="0"
     inkscape:pageshadow="2"
     inkscape:window-width="1680"
     inkscape:window-height="1022"
     id="namedview28"
     showgrid="false"
     inkscape:zoom="8.9844101"
     inkscape:cx="5.0579974"
     inkscape:cy="10.601019"
     inkscape:window-x="0"
     inkscape:window-y="0"
     inkscape:window-maximized="1"
     inkscape:current-layer="svg2" /><metadata
     id="metadata8"><rdf:RDF><cc:Work
         rdf:about=""><dc:format>image/svg+xml</dc:format><dc:type
           rdf:resource="http://purl.org/dc/dcmitype/StillImage" /><dc:title></dc:title></cc:Work></rdf:RDF></metadata><defs
     id="defs6"><clipPath
       id="clipPath18"
       clipPathUnits="userSpaceOnUse"><path
         id="path16"
         d="M 0,32 H 32 V 0 H 0 Z" /></clipPath></defs><path
     inkscape:connector-curvature="0"
     d="m 12.762385,19.939901 c 0,-2.094211 1.024926,-4.404082 2.741911,-5.620506 0.160123,-0.1136 0.331063,-0.222872 0.507775,-0.324933 0.984897,-0.568361 2.102144,-0.868409 3.230573,-0.868409 3.361484,0 6.198601,2.622901 6.45862,5.971042 l 0.0411,0.318441 0.31736,-0.01122 c 3.511868,0.0014 6.477374,3.08199 6.477374,6.728376 0,3.647107 -2.96767,6.728737 -6.48026,6.728737 -1.474639,0 -2.748404,-0.414731 -3.786311,-1.337957 l -0.09485,-0.03101 h -0.338269 l -0.125501,0.04364 c -0.64121,0.497676 -1.976283,1.506374 -4.096097,1.506374 -1.556504,0 -2.629034,-0.506332 -3.955091,-1.832749 l -0.230445,-0.236939 -0.235857,0.221432 c -1.146821,1.094527 -2.636606,1.671184 -4.3074292,1.671184 -3.5735384,0 -6.4806208,-2.891215 -6.4806208,-6.444197 0,-0.994993 0.2268401,-1.95861 0.6736671,-2.863085 0.079705,-0.161204 0.167335,-0.322047 0.2614605,-0.477841 1.1872117,-1.966186 3.2367031,-3.140414 5.5216902,-3.140414 0.5561,0 1.2517652,0.07465 1.6124022,0.213135 v -0.68989 c -0.360637,-0.12514 -1.0581062,-0.190055 -1.6124022,-0.190055 -2.520481,0 -4.7953702,1.294683 -6.1044767,3.462463 -0.10386,0.171661 -0.1947429,0.349095 -0.282739,0.526887 -0.4926275,0.997519 -0.739663,2.05995 -0.739663,3.158446 0,3.92047 3.2078528,7.11065 7.1488777,7.11065 1.7332152,0 3.2929622,-0.566197 4.5313842,-1.640529 1.354188,1.285303 2.555104,1.791997 4.199242,1.791997 2.212137,0 3.63304,-1.002567 4.37559,-1.572732 1.121216,0.928997 2.521922,1.41838 4.065081,1.41838 3.874307,0 7.147074,-3.386729 7.147074,-7.395553 0,-3.912174 -3.116972,-7.231825 -6.867942,-7.389781 -0.428796,-3.547573 -3.487704,-6.284075 -7.093698,-6.284075 -1.245635,0 -2.477927,0.331064 -3.563801,0.957847 -0.195103,0.112165 -0.383355,0.232611 -0.560427,0.358473 -1.892976,1.341204 -3.023207,3.854833 -3.023207,6.164704 0,0.01008 0.0011,0 0.0011,0.01008"
     id="path22"
     style="stroke-width:0.36063555" /><path
     style="stroke-width:0.36063555"
     d="m 26.967349,8.983697 c -1.245635,0 -2.476809,0.331379 -3.562682,0.9581623 -0.195104,0.1121647 -0.384992,0.2326187 -0.562064,0.3584817 -0.964706,0.68351 -1.72838,1.67119 -2.248251,2.781546 -9.87e-4,0.0022 -0.0012,0.0045 -0.0023,0.0067 0.06887,0.0053 0.07297,0.0011 0.14826,0.02877 0.01563,0.0058 0.0305,0.01271 0.04425,0.02213 0.0058,0.004 0.0041,0.01452 0.0111,0.01549 0.225366,0.0315 -0.08666,-0.07449 0.22571,0.05532 0.02668,0.03061 0.02649,0.02374 -0.03098,-0.0067 -0.0066,-0.0035 0.0128,0.0088 0.01992,0.0111 0.08415,0.02716 0.172238,0.0048 0.258902,0.0111 h 0.0023 c 0.468807,-0.949444 1.12966,-1.796123 1.958369,-2.383235 0.160123,-0.1136 0.332244,-0.223228 0.508955,-0.325289 0.984897,-0.5683613 2.100113,-0.8674356 3.228542,-0.8674356 3.361484,0 6.19928,2.6221176 6.459298,5.9702586 l 0.04204,0.31865 0.316436,-0.0111 c 3.511868,0.0014 6.477001,3.082879 6.477001,6.729265 0,3.647107 -2.966623,6.729265 -6.479214,6.729266 -0.546371,0 -1.055148,-0.07816 -1.544566,-0.196944 -0.01054,0.01871 -0.0045,0.01488 -0.02434,0.05089 -0.05962,0.108596 -0.09324,0.172404 -0.174815,0.263329 -0.0033,0.006 -0.01774,0.01771 -0.0111,0.01771 0.0087,-1.4e-5 0.02166,-0.02622 0.01992,-0.01771 -0.0017,0.0084 -0.04378,0.128536 -0.05753,0.1549 -0.0727,0.139356 -0.02524,0.02891 -0.04648,0.07745 -0.0069,0.01633 -0.01054,0.02675 -0.0111,0.04205 0.587464,0.168826 1.202107,0.274392 1.849939,0.274392 3.874306,0 7.147493,-3.386507 7.147493,-7.395332 0,-3.912174 -3.117704,-7.230737 -6.868674,-7.388693 -0.428641,-3.547607 -3.488345,-6.284522 -7.094339,-6.284522 z"
     id="path1390"
     inkscape:connector-curvature="0" /></svg>