<?xml version="1.0" encoding="UTF-8" standalone="no"?>
<svg
   xmlns:dc="http://purl.org/dc/elements/1.1/"
   xmlns:cc="http://creativecommons.org/ns#"
   xmlns:rdf="http://www.w3.org/1999/02/22-rdf-syntax-ns#"
   xmlns:svg="http://www.w3.org/2000/svg"
   xmlns="http://www.w3.org/2000/svg"
   xmlns:sodipodi="http://sodipodi.sourceforge.net/DTD/sodipodi-0.dtd"
   xmlns:inkscape="http://www.inkscape.org/namespaces/inkscape"
   viewBox="0 0 42.666668 42.666668"
   height="42.666668"
   width="42.666668"
   xml:space="preserve"
   id="svg2"
   version="1.1"
   sodipodi:docname="11d.svg"
   inkscape:version="0.92.3 (2405546, 2018-03-11)"><sodipodi:namedview
     pagecolor="#ffffff"
     bordercolor="#666666"
     borderopacity="1"
     objecttolerance="10"
     gridtolerance="10"
     guidetolerance="10"
     inkscape:pageopacity="0"
     inkscape:pageshadow="2"
     inkscape:window-width="1019"
     inkscape:window-height="1021"
     id="namedview28"
     showgrid="false"
     inkscape:zoom="3.1764687"
     inkscape:cx="24.61451"
     inkscape:cy="23.83824"
     inkscape:window-x="660"
     inkscape:window-y="0"
     inkscape:window-maximized="0"
     inkscape:current-layer="svg2" /><metadata
     id="metadata8"><rdf:RDF><cc:Work
         rdf:about=""><dc:format>image/svg+xml</dc:format><dc:type
           rdf:resource="http://purl.org/dc/dcmitype/StillImage" /><dc:title></dc:title></cc:Work></rdf:RDF></metadata><defs
     id="defs6"><clipPath
       id="clipPath18"
       clipPathUnits="userSpaceOnUse"><path
         id="path16"
         d="M 0,32 H 32 V 0 H 0 Z" /></clipPath></defs><path
     style="stroke-width:0.31830785"
     d="m 21.441406,9.6054688 c -1.099435,0 -2.186106,0.2924854 -3.144531,0.8457032 -0.172204,0.099 -0.339805,0.205316 -0.496094,0.316406 -1.670798,1.183787 -2.667969,3.402644 -2.667969,5.441406 0,0.0089 0.002,7.98e-4 0.002,0.0098 l 0.58789,-0.0098 c 0,-1.848414 0.904459,-3.887285 2.419922,-4.960937 0.141329,-0.100267 0.293248,-0.197027 0.449219,-0.287109 0.8693,-0.501653 1.855576,-0.765626 2.851562,-0.765626 2.966947,0 5.469719,2.314362 5.699219,5.269532 l 0.03711,0.28125 0.279296,-0.0098 c 3.099681,0.0012 5.716797,2.721042 5.716797,5.939453 0,3.219047 -2.618431,5.9375 -5.71875,5.9375 -1.301561,0 -2.425709,-0.364819 -3.341797,-1.179687 l -0.08398,-0.02734 h -0.140625 c 0.002,0.01483 0.005,0.02949 0.0039,0.04492 -3.8e-4,0.0252 6.3e-5,0.05097 0,0.07617 -6e-6,0.0013 -2.8e-5,0.02518 0,0.02539 l 0.002,0.002 c 0.0016,0.0036 0.003,0.0079 0.0039,0.01172 0.0034,0.01332 0.0032,0.01157 0.0039,0.02539 4.39e-4,0.0115 -0.0035,0.02366 -0.002,0.03516 3.19e-4,0.0024 0.0012,0.0055 0.002,0.0078 0.0029,0.0089 0.0039,0.0125 0.0059,0.02148 3.01e-4,0.0042 0.002,0.0095 0.002,0.01367 -1.29e-4,0.006 -0.0016,0.01159 -0.002,0.01758 -6.82e-4,0.01089 -0.0021,0.0223 -0.002,0.0332 2.95e-4,0.01731 0.0021,0.03347 0.002,0.05078 -2e-5,0.0037 -4.66e-4,0.0081 0,0.01172 4.45e-4,0.0035 9.53e-4,0.0064 0.002,0.0098 0.0093,0.0295 0.0048,0.05964 0.0039,0.08984 5e-6,0.0041 -2.48e-4,0.02907 0,0.03125 9.96e-4,0.0088 0.0045,0.01666 0.0059,0.02539 0.0031,0.01954 0.0038,0.02175 0.0039,0.04102 -1.6e-4,0.0033 4.74e-4,0.0066 0,0.0098 0.980481,0.791458 2.193741,1.212891 3.53125,1.212891 3.41958,0 6.308594,-2.989034 6.308594,-6.527344 0,-3.453003 -2.75178,-6.38402 -6.0625,-6.523437 -0.378468,-3.131195 -3.078959,-5.5468752 -6.261719,-5.5468752 z"
     id="path858" /><path
     style="stroke-width:0.31830785"
     d="m 12.28125,15.621094 c -2.224653,0 -4.2332149,1.141339 -5.3886719,3.054687 -0.09167,0.151514 -0.1703787,0.307919 -0.2480469,0.464844 -0.434808,0.88044 -0.6542968,1.819496 -0.6542968,2.789063 0,3.460325 2.8320789,6.27539 6.3105466,6.27539 1.491358,0 2.832667,-0.48238 3.91211,-1.384766 V 26.75 v -0.101562 -0.08398 -0.07031 -0.07031 -0.09766 c 0,-0.02296 -3e-6,-0.0454 0,-0.06836 3e-6,-0.01991 4e-6,-0.04064 0,-0.06055 1.9e-5,-0.01945 1.87e-4,-0.03914 0,-0.05859 -1.1e-4,-0.0215 -7.42e-4,-0.04297 0,-0.06445 -6.08e-4,-0.01253 0.0042,-0.02456 0.0039,-0.03711 l -0.113281,0.105469 c -1.012219,0.966063 -2.326063,1.47461 -3.800782,1.47461 -3.1541123,0 -5.7207027,-2.551531 -5.7207028,-5.6875 0,-0.878213 0.2013202,-1.729027 0.5957032,-2.527344 0.07035,-0.142283 0.1473907,-0.284366 0.2304687,-0.421875 1.047869,-1.735415 2.8562479,-2.771485 4.8730469,-2.771485 0.490831,0 1.105519,0.06527 1.423828,0.1875 V 15.789062 C 13.386934,15.678611 12.770489,15.621094 12.28125,15.621094 Z"
     id="path848" /><path
     style="fill:none;stroke:#000000;stroke-width:0;stroke-linecap:butt;stroke-linejoin:miter;stroke-miterlimit:4;stroke-dasharray:none;stroke-opacity:1"
     d="M 3.1995721,8.0261918 2.4270381,8.8022268 2.0819926,8.4571808 2.8551621,7.6817838 Z"
     id="path4715"
     inkscape:connector-curvature="0" /><path
     style="fill:none;stroke:#000000;stroke-width:0;stroke-linecap:butt;stroke-linejoin:miter;stroke-miterlimit:4;stroke-dasharray:none;stroke-opacity:1"
     d="m 2.8551621,7.6817838 -0.7731695,0.775397 0.3450455,0.345046 0.772534,-0.776035 z"
     id="path4720"
     inkscape:connector-curvature="0" /><path
     style="stroke-width:0.31830785"
     d="m 28.260487,6.5386555 c -1.099435,0 -2.186106,0.2924851 -3.144531,0.8457031 -0.172204,0.099 -0.339805,0.2053163 -0.496094,0.3164063 -0.851479,0.6032867 -1.525521,1.4750434 -1.984375,2.4550771 -8.71e-4,0.0019 -0.0011,0.004 -0.002,0.0059 0.06079,0.0047 0.06441,9.93e-4 0.130859,0.02539 0.0138,0.0051 0.02692,0.01122 0.03906,0.01953 0.0051,0.0035 0.0036,0.01282 0.0098,0.01367 0.198915,0.0278 -0.07649,-0.06575 0.199218,0.04883 0.02355,0.02702 0.02338,0.02095 -0.02734,-0.0059 -0.0058,-0.0031 0.0113,0.0078 0.01758,0.0098 0.07427,0.02397 0.152023,0.0042 0.228515,0.0098 h 0.002 c 0.413783,-0.8380084 0.997072,-1.5853129 1.728516,-2.1035155 0.141329,-0.100267 0.293248,-0.1970274 0.449219,-0.2871094 0.8693,-0.501653 1.853623,-0.765625 2.849609,-0.765625 2.966947,0 5.471672,2.3143605 5.701172,5.2695309 l 0.03711,0.28125 0.279296,-0.0098 c 3.099681,0.0012 5.716797,2.721042 5.716797,5.939453 0,3.219047 -2.618431,5.939453 -5.71875,5.939454 -0.482244,0 -0.931306,-0.06899 -1.363281,-0.173829 -0.0093,0.01651 -0.004,0.01313 -0.02148,0.04492 -0.05262,0.09585 -0.0823,0.152169 -0.154297,0.232422 -0.0029,0.0053 -0.01566,0.01563 -0.0098,0.01563 0.0077,-1.3e-5 0.01912,-0.02314 0.01758,-0.01563 -0.0015,0.0074 -0.03864,0.11345 -0.05078,0.136719 -0.06417,0.123 -0.02228,0.02552 -0.04102,0.06836 -0.0061,0.01441 -0.0093,0.02361 -0.0098,0.03711 0.518514,0.149011 1.061016,0.242187 1.632812,0.242187 3.41958,0 6.308594,-2.989034 6.308594,-6.527344 0,-3.453003 -2.75178,-6.382067 -6.0625,-6.521484 C 34.143834,8.954339 31.443247,6.5386555 28.260487,6.5386555 Z"
     id="path1390"
     inkscape:connector-curvature="0" /><path
     inkscape:connector-curvature="0"
     d="m 12.023402,33.337274 c -0.04423,0 -0.08934,-0.0098 -0.13149,-0.03087 -0.146925,-0.07302 -0.206882,-0.251108 -0.134162,-0.397736 l 1.406026,-2.835203 c 0.07302,-0.146628 0.250811,-0.206585 0.397736,-0.133864 0.146924,0.07272 0.206881,0.250811 0.134161,0.397735 l -1.406026,2.834907 c -0.05194,0.10448 -0.157016,0.165031 -0.266245,0.165031"
     id="path106"
     style="stroke-width:0.29681772" /><path
     inkscape:connector-curvature="0"
     d="m 13.423491,35.348214 c -0.04423,0 -0.08905,-0.0098 -0.13149,-0.03087 -0.146925,-0.07272 -0.206882,-0.250811 -0.134162,-0.397736 l 1.702547,-3.428838 c 0.07302,-0.146925 0.250811,-0.206585 0.398032,-0.134162 0.146628,0.07302 0.206586,0.251108 0.133865,0.398033 l -1.702546,3.428838 c -0.05194,0.104183 -0.157017,0.164734 -0.266246,0.164734"
     id="path108"
     style="stroke-width:0.29681772" /><path
     inkscape:connector-curvature="0"
     d="m 22.966774,35.348214 c -0.04423,0 -0.08904,-0.0098 -0.13149,-0.03087 -0.146925,-0.07272 -0.206882,-0.251108 -0.134162,-0.397736 l 1.702843,-3.428838 c 0.07272,-0.146925 0.250811,-0.206585 0.397736,-0.134162 0.146925,0.07302 0.206882,0.251405 0.134162,0.398033 l -1.702844,3.428838 c -0.05194,0.104183 -0.157016,0.164734 -0.266245,0.164734"
     id="path110"
     style="stroke-width:0.29681772" /><path
     inkscape:connector-curvature="0"
     d="m 26.289945,33.337274 c -0.04423,0 -0.08934,-0.0098 -0.13149,-0.03087 -0.146925,-0.07302 -0.206882,-0.251108 -0.134162,-0.397736 l 1.406027,-2.835203 c 0.07302,-0.146628 0.25081,-0.206585 0.397735,-0.133864 0.146925,0.07272 0.206882,0.250811 0.134162,0.397735 l -1.406025,2.834906 c -0.05194,0.10448 -0.157017,0.165031 -0.266246,0.165031"
     id="path112"
     style="stroke-width:0.29681772" /><path
     inkscape:connector-curvature="0"
     style="fill:none;stroke:#000000;stroke-width:0.59363544;stroke-miterlimit:10"
     stroke-miterlimit="10"
     d="m 20.984625,22.897008 -3.834884,6.124536 c -0.03829,0.0561 0.0033,0.131787 0.07124,0.129116 l 2.84381,-0.125257 c 0.06025,-0.0027 0.102996,0.05818 0.08014,0.113978 l -1.808214,5.053618 c -0.0377,0.09112 0.08697,0.159392 0.14366,0.07866 l 4.160197,-6.586978 c 0.03859,-0.05462 -5.93e-4,-0.12971 -0.06738,-0.12971 h -2.696293 c -0.05461,0 -0.09379,-0.05135 -0.07955,-0.103589 l 1.335086,-4.486103 c 0.02345,-0.08994 -0.09528,-0.144254 -0.147814,-0.06827"
     id="path144" /></svg>